<?xml version="1.0" encoding="utf-8"?><!-- Uploaded to: SVG Repo, www.svgrepo.com, Generator: SVG Repo Mixer Tools -->
<svg fill="#000000" width="800px" height="800px" viewBox="0 0 24 24" id="check-double" data-name="Flat Color" xmlns="http://www.w3.org/2000/svg" class="icon flat-color"><path id="secondary" d="M13.22,17.5a1,1,0,0,1-.65-.24,1,1,0,0,1-.1-1.41l7.77-9a1,1,0,0,1,1.52,1.3l-7.78,9A1,1,0,0,1,13.22,17.5Z" style="fill: rgb(44, 169, 188);"></path><path id="primary" d="M7,17.5a1,1,0,0,1-.76-.34l-4-4.62a1,1,0,0,1,1.52-1.31L7,15l7-8.12a1,1,0,1,1,1.51,1.3l-7.77,9A1,1,0,0,1,7,17.5Z" style="fill: rgb(0, 0, 0);"></path></svg>